<svg width="24" height="36" viewBox="0 0 24 36" fill="none" xmlns="http://www.w3.org/2000/svg">
<path d="M8.15 18.5C8.08333 21.2333 7.88333 23.8 7.55 26.2C7.25 28.6 6.91667 30.1667 6.55 30.9C6.15 31.4 5.71667 31.65 5.25 31.65C4.81667 31.65 4.6 31.6 4.6 31.5C5.06667 28.4 5.3 25.4833 5.3 22.75C5.3 13.0167 3.83333 6.68333 0.9 3.75L2.95 0.399998C4.95 2.1 7.88333 3.3 11.75 4C13.2167 4.26666 14.6333 4.56666 16 4.9C18.9333 5.56667 20.4 6.88333 20.4 8.85C20.4 9.71667 19.95 10.6167 19.05 11.55C18.1833 12.4833 17.1667 13.3 16 14C13.9 15.2667 12.35 16.0833 11.35 16.45C15.4833 16.75 18.6167 17.8167 20.75 19.65C22.8833 21.4833 23.95 23.6833 23.95 26.25C23.95 28.8167 22.7167 31.0667 20.25 33C17.8167 34.9333 14.3 35.9 9.7 35.9C6.66667 35.9 3.85 35.6167 1.25 35.05C0.75 34.55 0.5 34.0667 0.5 33.6C0.5 33.1333 0.55 32.9 0.65 32.9C0.75 32.9 1.05 32.9667 1.55 33.1C3.18333 33.4667 4.86667 33.65 6.6 33.65C10.0667 33.65 12.8833 32.9333 15.05 31.5C17.25 30.0333 18.35 28.0667 18.35 25.6C18.35 24.1667 17.7667 22.9 16.6 21.8C14.5 19.8333 11.6833 18.7333 8.15 18.5ZM7.4 6.2C7.93333 7.56666 8.2 10.45 8.2 14.85C10.0333 14.1167 11.5833 13.2167 12.85 12.15C14.1167 11.05 14.75 10.2 14.75 9.6C14.75 9 14.3 8.51667 13.4 8.15C12.5333 7.75 11.4333 7.4 10.1 7.1C8.76667 6.76667 7.86667 6.46666 7.4 6.2Z" fill="white"/>
</svg>
