<svg width="38" height="25" viewBox="0 0 38 25" fill="none" xmlns="http://www.w3.org/2000/svg">
<path d="M14.0635 23.3533C15.0581 23.1475 15.9209 22.7635 16.6529 22.2031C17.3005 21.7167 17.8429 21.1156 18.2762 20.4007C18.956 19.3207 19.2954 18.1042 19.2954 16.7455C19.2954 15.4304 18.9977 14.3106 18.4032 13.389C17.8078 12.4664 16.926 11.7923 15.7559 11.3666C16.5259 10.9731 17.108 10.5379 17.5044 10.0609C18.2107 9.21234 18.5654 8.08594 18.5654 6.68739C18.5654 5.32962 18.2136 4.16339 17.5129 3.18962C16.3485 1.60524 14.3678 0.791719 11.5755 0.75H0.5V23.6643H10.8255C11.9889 23.6652 13.0698 23.5609 14.0635 23.3533ZM5.07015 4.73039H10.0556C11.1536 4.73039 12.0553 4.8489 12.7635 5.08879C13.5846 5.43013 13.9952 6.13461 13.9952 7.20225C13.9952 8.16653 13.6842 8.83782 13.0632 9.21614C12.444 9.59446 11.6352 9.78313 10.6397 9.78313H5.07015V4.73039ZM5.07015 19.6848V13.5767H10.7098C11.6959 13.5872 12.4573 13.7152 13.0006 13.9645C13.9734 14.4092 14.4598 15.2285 14.4598 16.4194C14.4598 17.8283 13.9573 18.7822 12.9541 19.2809C12.4014 19.5502 11.6267 19.6839 10.6349 19.6839L5.07015 19.6848Z" fill="#D9D9D9"/>
<path d="M23.1763 22.1558C24.9001 23.5467 26.8893 24.2408 29.144 24.2408C31.8766 24.2408 34.0024 23.4178 35.5185 21.769C36.4961 20.7317 37.0432 19.7105 37.1626 18.7064H32.639C32.3763 19.2032 32.0719 19.591 31.7268 19.8707C31.0953 20.3894 30.2761 20.6492 29.2663 20.6492C28.3144 20.6492 27.5009 20.4368 26.8248 20.0111C25.7117 19.3265 25.121 18.1356 25.0527 16.4346H37.3931C37.4149 14.9725 37.3665 13.8508 37.247 13.0724C37.0413 11.744 36.5909 10.5759 35.8968 9.56985C35.1288 8.42827 34.1513 7.592 32.968 7.06293C31.7875 6.53385 30.4591 6.27026 28.9838 6.27026C26.5015 6.27026 24.4819 7.05344 22.925 8.61981C21.3691 10.1843 20.5906 12.4362 20.5906 15.3707C20.5906 18.5035 21.4525 20.7648 23.1763 22.1558ZM26.3413 10.8907C26.968 10.2459 27.8488 9.92353 28.9857 9.92353C30.0315 9.92353 30.9086 10.2279 31.6149 10.8357C32.3213 11.4444 32.7148 12.3385 32.7954 13.5133H25.1617C25.322 12.4106 25.7155 11.5364 26.3413 10.8907Z" fill="#D9D9D9"/>
<path d="M33.6743 2.06787H23.7167V4.38044H33.6743V2.06787Z" fill="#D9D9D9"/>
</svg>
