<svg width="32" height="32" viewBox="0 0 32 32" fill="none" xmlns="http://www.w3.org/2000/svg">
<path d="M26.1653 7.58668C26.1653 8.59617 25.3471 9.41434 24.3376 9.41434C23.3281 9.41434 22.5099 8.59617 22.5099 7.58668C22.5099 6.5772 23.3281 5.75902 24.3376 5.75902C25.3471 5.75902 26.1653 6.5772 26.1653 7.58668ZM23.8899 15.7782C23.8899 20.0107 20.4462 23.4543 16.2145 23.4543C11.982 23.4543 8.53836 20.0107 8.53836 15.7782C8.53836 11.5457 11.982 8.10282 16.2145 8.10282C20.447 8.10282 23.8899 11.5465 23.8899 15.7782ZM21.1317 15.7782C21.1317 13.0672 18.9255 10.861 16.2145 10.861C13.5036 10.861 11.2973 13.0672 11.2973 15.7782C11.2973 18.4899 13.5036 20.6953 16.2145 20.6953C18.9255 20.6953 21.1317 18.4899 21.1317 15.7782ZM31.75 9.61216C31.75 4.44181 27.5582 0.25 22.3878 0.25H9.61216C4.44181 0.25 0.25 4.44181 0.25 9.61216V22.3887C0.25 27.559 4.44181 31.7508 9.61216 31.7508H22.3878C27.559 31.7508 31.75 27.559 31.75 22.3887V9.61216ZM28.6768 22.2478C28.6768 25.7989 25.7973 28.6776 22.2462 28.6776H9.75298C6.20187 28.6776 3.32241 25.7989 3.32241 22.2478V9.75301C3.32241 6.2019 6.20106 3.32323 9.75298 3.32323H22.247C25.7981 3.32323 28.6776 6.2019 28.6776 9.75301L28.6768 22.2478Z" fill="#D9D9D9"/>
</svg>
