<svg width="31" height="32" viewBox="0 0 31 32" fill="none" xmlns="http://www.w3.org/2000/svg">
<path d="M0.507417 10.6857H6.88842V31.1827H0.507417V10.6857ZM3.69881 0.5C5.73917 0.5 7.39227 2.15578 7.39227 4.19168C7.39227 6.23025 5.73917 7.88869 3.69881 7.88869C1.65312 7.88869 0 6.23114 0 4.19168C0 2.15578 1.65312 0.5 3.69881 0.5ZM10.8854 31.1818H17.2531V21.0433C17.2531 18.37 17.7587 15.7812 21.0747 15.7812C24.3391 15.7812 24.3854 18.8382 24.3854 21.2169V31.1818H30.7522V19.9403C30.7522 14.4201 29.5629 10.1774 23.1124 10.1774C20.0101 10.1774 17.9314 11.875 17.0795 13.489H16.9976V10.6848H10.8863L10.8854 31.1818Z" fill="#D9D9D9"/>
</svg>
